{"accessors" : [{"bufferView" : 0, "byteOffset" : 0, "componentType" : 5123, "count" : 41685, "type" : "SCALAR", "max" : [41684], "min" : [0]}, {"bufferView" : 1, "byteOffset" : 0, "componentType" : 5126, "count" : 41685, "type" : "VEC3", "max" : [4796.798828125, 1925.005126953125, 1988.1083984375], "min" : [-4303.66455078125, 0.17064432799816132, -1988.1083984375], "name" : "POSITION"}, {"bufferView" : 1, "byteOffset" : 12, "componentType" : 5126, "count" : 41685, "type" : "VEC3", "max" : [1.0000044107437134, 1.0000044107437134, 1.0000044107437134], "min" : [-1.0000044107437134, -1.0000044107437134, -1.0000044107437134], "name" : "NORMAL"}, {"bufferView" : 1, "byteOffset" : 24, "componentType" : 5126, "count" : 41685, "type" : "VEC2", "max" : [3.706510066986084, 0.9724253416061401], "min" : [-2.2995266914367676, 0.060198187828063965], "name" : "TEXCOORD_0"}], "asset" : {"generator" : "Aspose.3D 24.6.0", "version" : "2.0"}, "buffers" : [{"uri" : "data:application/octet-stream;base64,", "byteLength" : 1417300}], "bufferViews" : [{"buffer" : 0, "byteOffset" : 0, "byteLength" : 83372, "target" : 34963}, {"buffer" : 0, "byteOffset" : 83376, "byteLength" : 1333920, "byteStride" : 32, "target" : 34962}], "images" : [{"uri" : "Texture\\T_Spase_64.png"}], "materials" : [{"name" : "Spaceship_mat", "pbrMetallicRoughness" : {"baseColorFactor" : [1, 1, 1, 1], "baseColorTexture" : {"index" : 0, "texCoord" : 0}, "metallicFactor" : 1, "roughnessFactor" : 1}, "emissiveFactor" : [0, 0, 0], "alphaMode" : "OPAQUE", "doubleSided" : false}], "meshes" : [{"primitives" : [{"attributes" : {"POSITION" : 1, "NORMAL" : 2, "TEXCOORD_0" : 3}, "indices" : 0, "material" : 0, "mode" : 4}], "name" : "Mesh.002"}], "nodes" : [{"mesh" : 0, "name" : "Destroyer_1"}], "samplers" : [{"magFilter" : 9729, "minFilter" : 9729, "wrapS" : 10497, "wrapT" : 10497}], "scene" : 0, "scenes" : [{"nodes" : [0]}], "textures" : [{"sampler" : 0, "source" : 0, "name" : "base_color_texture"}]}