<?xml version="1.0" encoding="UTF-8" standalone="no"?>
<svg
   width="13.021163"
   height="14.000054"
   version="1.1"
   id="svg1"
   sodipodi:docname="CharacterBody3D.svg"
   xmlns:inkscape="http://www.inkscape.org/namespaces/inkscape"
   xmlns:sodipodi="http://sodipodi.sourceforge.net/DTD/sodipodi-0.dtd"
   xmlns="http://www.w3.org/2000/svg"
   xmlns:svg="http://www.w3.org/2000/svg">
  <defs
     id="defs1" />
  <sodipodi:namedview
     id="namedview1"
     pagecolor="#ffffff"
     bordercolor="#000000"
     borderopacity="0.25"
     inkscape:showpageshadow="2"
     inkscape:pageopacity="0.0"
     inkscape:pagecheckerboard="0"
     inkscape:deskcolor="#d1d1d1" />
  <path
     fill="#fc7f7f"
     d="m 5.0001245,0 a 1,1 0 0 0 -1,1 v 3 a 1,1 0 0 0 1,1 h 1 v 0.99 a 1,1 0 0 0 -0.316,0.062 l -2.051,0.684 -0.684,-2.051 a 1.0000706,1.0000706 0 0 0 -1.898,0.631 l 1,3 a 1,1 0 0 0 1.265,0.633 l 1.684,-0.56 v 0.61 c 0,0.041 0.019,0.076 0.024,0.116 l -4.57900003,3.052 a 1.0001245,1.0001245 0 1 0 1.11000003,1.664 l 5.056,-3.37 1.495,2.986 a 1,1 0 0 0 1.21,0.502 l 2.9999995,-1 a 1,1 0 1 0 -0.632,-1.897 l -2.1779995,0.725 -0.975,-1.951 a 0.981,0.981 0 0 0 0.469,-0.827 V 8 h 1.3829995 l 0.722,1.448 a 1.0006404,1.0006404 0 1 0 1.79,-0.895 l -1,-2 A 1,1 0 0 0 11.000124,6 H 8.0001245 V 5 h 1 A 1,1 0 0 0 10.000124,4 V 1 A 1,1 0 0 0 9.0001245,0 Z m 0,2 h 1 v 2 h -1 z"
     id="path1"
     style="fill:#800080" />
</svg>
