<?xml version="1.0" encoding="UTF-8" standalone="no"?>
<svg
   width="14.012004"
   height="14.01264"
   version="1.1"
   id="svg1"
   sodipodi:docname="MeshInstance3D.svg"
   xmlns:inkscape="http://www.inkscape.org/namespaces/inkscape"
   xmlns:sodipodi="http://sodipodi.sourceforge.net/DTD/sodipodi-0.dtd"
   xmlns="http://www.w3.org/2000/svg"
   xmlns:svg="http://www.w3.org/2000/svg">
  <defs
     id="defs1" />
  <sodipodi:namedview
     id="namedview1"
     pagecolor="#ffffff"
     bordercolor="#000000"
     borderopacity="0.25"
     inkscape:showpageshadow="2"
     inkscape:pageopacity="0.0"
     inkscape:pagecheckerboard="0"
     inkscape:deskcolor="#d1d1d1" />
  <path
     fill="#fc7f7f"
     d="m 3.7356845,1.0063204 a 2,2 0 1 0 -2.73,2.73 V 10.27732 a 2,2 0 1 0 2.73,2.729 h 6.5409995 a 2,2 0 1 0 2.729,-2.73 V 3.7353204 a 2,2 0 1 0 -2.73,-2.729 z m 0.683,2 h 5.8569995 a 2,2 0 0 0 0.729,0.73 v 5.856 l -6.5869995,-6.586 z m -1.414,1.414 6.585,6.5859996 h -5.857 a 2,2 0 0 0 -0.729,-0.73 V 4.4203204 Z"
     id="path1"
     style="fill:#800080" />
</svg>
