<?xml version="1.0" encoding="UTF-8" standalone="no"?>
<svg
   width="14.000001"
   height="13.999932"
   version="1.1"
   id="svg1"
   xmlns="http://www.w3.org/2000/svg"
   xmlns:svg="http://www.w3.org/2000/svg">
  <defs
     id="defs1" />
  <path
     fill="#e0e0e0"
     d="m 0.55300107,3.1034661 a 1,1 0 0 0 -0.5529999971164,0.896 v 6 A 1,1 0 0 0 0.55300107,10.894466 l 6.00000003,3 a 1,1 0 0 0 0.894,0 l 5.9999999,-3 a 1,1 0 0 0 0.553,-0.8949999 v -6 a 1,1 0 0 0 -0.553,-0.894 L 7.4470011,0.10546606 a 1,1 0 0 0 -0.894,0 z m 6.44700003,-1 3.7639999,1.882 -3.7639999,1.882 -3.764,-1.882 z m -5,3.5 4,2 v 3.7659999 l -4,-1.9999999 z"
     id="path1"
     style="fill:#800080" />
</svg>
