<?xml version="1.0" encoding="UTF-8" standalone="no"?>
<svg
   width="14"
   height="14"
   version="1.1"
   id="svg1"
   xmlns="http://www.w3.org/2000/svg"
   xmlns:svg="http://www.w3.org/2000/svg">
  <defs
     id="defs1" />
  <path
     fill="#fc7f7f"
     d="M 2,0 A 2,2 0 0 0 0,2 v 10 a 2,2 0 0 0 2,2 h 10 a 2,2 0 0 0 2,-2 V 2 A 2,2 0 0 0 12,0 Z m 0,1 h 10 a 1,1 0 0 1 1,1 v 10 a 1,1 0 0 1 -1,1 H 2 A 1,1 0 0 1 1,12 V 2 A 1,1 0 0 1 2,1 Z M 2,2 V 4 H 4 V 2 Z m 8,0 v 2 h 2 V 2 Z m -8,8 v 2 h 2 v -2 z m 8,0 v 2 h 2 v -2 z"
     id="path1"
     style="fill:#800080" />
</svg>
